<?xml version="1.0" encoding="UTF-8"?>
<!DOCTYPE svg PUBLIC "-//W3C//DTD SVG 1.1//EN" "http://www.w3.org/Graphics/SVG/1.1/DTD/svg11.dtd">
<!-- Creator: CorelDRAW 2020 (64 Bit) -->
<svg xmlns="http://www.w3.org/2000/svg" xml:space="preserve" width="4.7626mm" height="4.2334mm" version="1.1" style="shape-rendering:geometricPrecision; text-rendering:geometricPrecision; image-rendering:optimizeQuality; fill-rule:evenodd; clip-rule:evenodd"
viewBox="0 0 476.26 423.34"
 xmlns:xlink="http://www.w3.org/1999/xlink"
 xmlns:xodm="http://www.corel.com/coreldraw/odm/2003">
 <defs>
  <style type="text/css">
   <![CDATA[
    .fil0 {fill:#D9D9D9;fill-rule:nonzero}
   ]]>
  </style>
 </defs>
 <g id="Camada_x0020_1">
  <metadata id="CorelCorpID_0Corel-Layer"/>
  <path class="fil0" d="M423.34 0l-370.42 0c-29.22,0 -52.92,23.69 -52.92,52.92 0,29.23 23.7,52.92 52.92,52.92l370.42 0c29.22,0 52.92,-23.69 52.92,-52.92 0,-29.23 -23.7,-52.92 -52.92,-52.92z"/>
  <path class="fil0" d="M423.34 317.5l-370.42 0c-29.22,0 -52.92,23.69 -52.92,52.92 0,29.23 23.7,52.92 52.92,52.92l370.42 0c29.22,0 52.92,-23.69 52.92,-52.92 0,-29.23 -23.7,-52.92 -52.92,-52.92z"/>
  <path class="fil0" d="M423.34 158.75l-370.42 0c-29.22,0 -52.92,23.69 -52.92,52.92 0,29.23 23.7,52.92 52.92,52.92l370.42 0c29.22,0 52.92,-23.69 52.92,-52.92 0,-29.23 -23.7,-52.92 -52.92,-52.92z"/>
 </g>
</svg>
